<svg height='70px' width='70px'  fill="#FFFFFF" xmlns="http://www.w3.org/2000/svg" xmlns:xlink="http://www.w3.org/1999/xlink" xml:space="preserve" version="1.1" style="shape-rendering:geometricPrecision;text-rendering:geometricPrecision;image-rendering:optimizeQuality;" viewBox="0 0 408.44 395.52" x="0px" y="0px" fill-rule="evenodd" clip-rule="evenodd"><defs><style type="text/css">
   
    .fil1 {fill:#FFFFFF}
    .fil0 {fill:#FFFFFF;fill-rule:nonzero}
   
  </style></defs><g><path class="fil0" d="M11.01 22.02c-6.08,0 -11.01,-4.93 -11.01,-11.01 0,-6.08 4.93,-11.01 11.01,-11.01l42.33 0c5.78,0 10.52,4.45 10.97,10.12l7.03 49.19 326.09 0c7.43,0.13 12.79,7.19 10.45,14.41l-55.56 170.66c-1.34,4.03 -4.93,7.1 -9.42,7.52l-240.69 23.49 2.99 20.94 244.47 0c6.08,0 11.01,4.93 11.01,11.01 0,6.08 -4.93,11.01 -11.01,11.01l-254 0c-5.38,-0.02 -10.1,-3.98 -10.88,-9.46l-40.98 -286.87 -32.8 0zm63.47 59.31l24.62 172.32 234.54 -22.89 48.65 -149.43 -307.81 0z"></path><path class="fil1" d="M118.65 335.82c16.48,0 29.85,13.37 29.85,29.85 0,16.48 -13.37,29.85 -29.85,29.85 -16.48,0 -29.85,-13.37 -29.85,-29.85 0,-16.48 13.37,-29.85 29.85,-29.85z"></path><path class="fil1" d="M325.03 335.82c16.48,0 29.85,13.37 29.85,29.85 0,16.48 -13.37,29.85 -29.85,29.85 -16.48,0 -29.85,-13.37 -29.85,-29.85 0,-16.48 13.37,-29.85 29.85,-29.85z"></path></g></svg>